# Blender v2.79 (sub 0) OBJ File: ''
# www.blender.org
mtllib box.mtl
o Box
v -0.258763 0.009525 0.117475
v 0.258763 0.009525 0.117475
v -0.258763 0.009525 -0.117475
v 0.258763 0.009525 -0.117475
v -0.258763 0.085725 0.117475
v 0.258763 0.085725 0.117475
v 0.258763 0.085725 -0.117475
v -0.268288 0.085725 0.127000
v -0.268288 0.085725 -0.127000
v -0.268288 0.000000 0.127000
v -0.268288 0.000000 -0.127000
v 0.268288 0.085725 -0.127000
v 0.268288 0.000000 -0.127000
v -0.258763 0.085725 -0.117475
v 0.268288 0.085725 0.127000
v 0.268288 0.000000 0.127000
vn 0.0000 1.0000 0.0000
vn 0.0000 0.0000 -1.0000
vn -1.0000 0.0000 0.0000
vn 0.0000 0.0000 1.0000
vn 1.0000 0.0000 0.0000
vn 0.0000 -1.0000 0.0000
usemtl None
s off
f 1//1 2//1 3//1
f 2//1 4//1 3//1
f 5//2 6//2 1//2
f 6//2 2//2 1//2
f 6//3 7//3 2//3
f 7//3 4//3 2//3
f 8//3 9//3 10//3
f 9//3 11//3 10//3
f 9//2 12//2 11//2
f 12//2 13//2 11//2
f 7//4 14//4 4//4
f 14//4 3//4 4//4
f 15//4 8//4 16//4
f 8//4 10//4 16//4
f 5//1 8//1 6//1
f 8//1 15//1 6//1
f 6//1 15//1 7//1
f 15//1 12//1 7//1
f 7//1 12//1 14//1
f 12//1 9//1 14//1
f 14//1 9//1 5//1
f 9//1 8//1 5//1
f 12//5 15//5 13//5
f 15//5 16//5 13//5
f 14//5 5//5 3//5
f 5//5 1//5 3//5
f 16//6 10//6 13//6
f 10//6 11//6 13//6
