solid Onshape
  facet normal 0 0 1
    outer loop
      vertex -0.258763 -0.117475 0.009525
      vertex 0.258763 -0.117475 0.009525
      vertex -0.258763 0.117475 0.009525
    endloop
  endfacet
  facet normal 0 0 1
    outer loop
      vertex 0.258763 -0.117475 0.009525
      vertex 0.258763 0.117475 0.009525
      vertex -0.258763 0.117475 0.009525
    endloop
  endfacet
  facet normal 0 1 0
    outer loop
      vertex -0.258763 -0.117475 0.085725
      vertex 0.258763 -0.117475 0.085725
      vertex -0.258763 -0.117475 0.009525
    endloop
  endfacet
  facet normal 0 1 0
    outer loop
      vertex 0.258763 -0.117475 0.085725
      vertex 0.258763 -0.117475 0.009525
      vertex -0.258763 -0.117475 0.009525
    endloop
  endfacet
  facet normal -1 0 0
    outer loop
      vertex 0.258763 -0.117475 0.085725
      vertex 0.258763 0.117475 0.085725
      vertex 0.258763 -0.117475 0.009525
    endloop
  endfacet
  facet normal -1 0 0
    outer loop
      vertex 0.258763 0.117475 0.085725
      vertex 0.258763 0.117475 0.009525
      vertex 0.258763 -0.117475 0.009525
    endloop
  endfacet
  facet normal -1 0 0
    outer loop
      vertex -0.268288 -0.127 0.085725
      vertex -0.268288 0.127 0.085725
      vertex -0.268288 -0.127 0
    endloop
  endfacet
  facet normal -1 0 0
    outer loop
      vertex -0.268288 0.127 0.085725
      vertex -0.268288 0.127 0
      vertex -0.268288 -0.127 0
    endloop
  endfacet
  facet normal 0 1 0
    outer loop
      vertex -0.268288 0.127 0.085725
      vertex 0.268288 0.127 0.085725
      vertex -0.268288 0.127 0
    endloop
  endfacet
  facet normal 0 1 0
    outer loop
      vertex 0.268288 0.127 0.085725
      vertex 0.268288 0.127 0
      vertex -0.268288 0.127 0
    endloop
  endfacet
  facet normal 0 -1 0
    outer loop
      vertex 0.258763 0.117475 0.085725
      vertex -0.258763 0.117475 0.085725
      vertex 0.258763 0.117475 0.009525
    endloop
  endfacet
  facet normal 0 -1 0
    outer loop
      vertex -0.258763 0.117475 0.085725
      vertex -0.258763 0.117475 0.009525
      vertex 0.258763 0.117475 0.009525
    endloop
  endfacet
  facet normal 0 -1 0
    outer loop
      vertex 0.268288 -0.127 0.085725
      vertex -0.268288 -0.127 0.085725
      vertex 0.268288 -0.127 0
    endloop
  endfacet
  facet normal 0 -1 0
    outer loop
      vertex -0.268288 -0.127 0.085725
      vertex -0.268288 -0.127 0
      vertex 0.268288 -0.127 0
    endloop
  endfacet
  facet normal 0 0 1
    outer loop
      vertex -0.258763 -0.117475 0.085725
      vertex -0.268288 -0.127 0.085725
      vertex 0.258763 -0.117475 0.085725
    endloop
  endfacet
  facet normal 0 0 1
    outer loop
      vertex -0.268288 -0.127 0.085725
      vertex 0.268288 -0.127 0.085725
      vertex 0.258763 -0.117475 0.085725
    endloop
  endfacet
  facet normal 0 0 1
    outer loop
      vertex 0.258763 -0.117475 0.085725
      vertex 0.268288 -0.127 0.085725
      vertex 0.258763 0.117475 0.085725
    endloop
  endfacet
  facet normal 0 0 1
    outer loop
      vertex 0.268288 -0.127 0.085725
      vertex 0.268288 0.127 0.085725
      vertex 0.258763 0.117475 0.085725
    endloop
  endfacet
  facet normal 0 0 1
    outer loop
      vertex 0.258763 0.117475 0.085725
      vertex 0.268288 0.127 0.085725
      vertex -0.258763 0.117475 0.085725
    endloop
  endfacet
  facet normal 0 0 1
    outer loop
      vertex 0.268288 0.127 0.085725
      vertex -0.268288 0.127 0.085725
      vertex -0.258763 0.117475 0.085725
    endloop
  endfacet
  facet normal 0 0 1
    outer loop
      vertex -0.258763 0.117475 0.085725
      vertex -0.268288 0.127 0.085725
      vertex -0.258763 -0.117475 0.085725
    endloop
  endfacet
  facet normal 0 0 1
    outer loop
      vertex -0.268288 0.127 0.085725
      vertex -0.268288 -0.127 0.085725
      vertex -0.258763 -0.117475 0.085725
    endloop
  endfacet
  facet normal 1 0 0
    outer loop
      vertex 0.268288 0.127 0.085725
      vertex 0.268288 -0.127 0.085725
      vertex 0.268288 0.127 0
    endloop
  endfacet
  facet normal 1 0 0
    outer loop
      vertex 0.268288 -0.127 0.085725
      vertex 0.268288 -0.127 0
      vertex 0.268288 0.127 0
    endloop
  endfacet
  facet normal 1 0 0
    outer loop
      vertex -0.258763 0.117475 0.085725
      vertex -0.258763 -0.117475 0.085725
      vertex -0.258763 0.117475 0.009525
    endloop
  endfacet
  facet normal 1 0 0
    outer loop
      vertex -0.258763 -0.117475 0.085725
      vertex -0.258763 -0.117475 0.009525
      vertex -0.258763 0.117475 0.009525
    endloop
  endfacet
  facet normal 0 0 -1
    outer loop
      vertex 0.268288 -0.127 0
      vertex -0.268288 -0.127 0
      vertex 0.268288 0.127 0
    endloop
  endfacet
  facet normal 0 0 -1
    outer loop
      vertex -0.268288 -0.127 0
      vertex -0.268288 0.127 0
      vertex 0.268288 0.127 0
    endloop
  endfacet
endsolid Onshape
